<svg id="Layer_1" data-name="Layer 1" xmlns="http://www.w3.org/2000/svg" viewBox="0 0 170 170"><defs><style>.cls-1{fill:#df942d;}.cls-2{fill:#652a13;}.cls-3,.cls-5,.cls-6,.cls-7{fill:#fff;}.cls-3,.cls-4,.cls-6{stroke:#652a13;stroke-miterlimit:10;}.cls-4{fill:none;}.cls-5{font-size:11.4px;font-family:Bauhaus93, Bauhaus 93;}.cls-6{stroke-width:0.75px;}</style></defs><title>logo</title><circle class="cls-1" cx="86.25" cy="89.42" r="35.58" transform="translate(-20.2 153.48) rotate(-77.07)"/><path class="cls-2" d="M108.59,47.31l-1.71.67c0,1.83,0,3.67,0,5.49a41.45,41.45,0,0,1,4.5,68.85c-.5.39-1,.77-1.52,1.11a39,39,0,0,1-3.81,2.36l-.81.43c-.35.18-.69.36-1,.51l-.18.09,0,0-.67.31c-.21.1-.43.2-.65.28l-.11,0a41,41,0,0,1-16.38,3.37h-.15a41.12,41.12,0,0,1-16.37-3.42l-.82-.37-.23-.1-.56-.27L67,126.16l-.85-.47a41.38,41.38,0,0,1-3.87-2.41c-.43-.3-.9-.65-1.5-1.12a41.45,41.45,0,0,1,5.43-69.1,48.56,48.56,0,0,1-.33-5.53,13.3,13.3,0,0,1-1.5-.52,47.65,47.65,0,0,0-7.41,80c.68.53,1.25,1,1.76,1.31a44.82,44.82,0,0,0,4.39,2.74c.31.18.62.35,1,.54s.81.42,1.26.64l.86.41.63.29h0l.35.15a47.12,47.12,0,0,0,18.8,3.92h.16A47.26,47.26,0,0,0,105,133.19l.89-.38h0l.12-.06c.28-.13.56-.25.83-.4s.82-.39,1.21-.6.67-.34,1-.51a44,44,0,0,0,4.39-2.71c.57-.4,1.17-.84,1.75-1.3a47.65,47.65,0,0,0-6.62-79.9Z"/><path class="cls-2" d="M102.75,61.48s7.93,6.88-1.71,16.39c0,0,.34,8.68-9.84,8.13s-4.58-14-4.58-14Z"/><path class="cls-3" d="M108.1,102.55a35.23,35.23,0,0,0-.63-6.54,7.4,7.4,0,0,0-1.19-3c-2.49-3-7.78-1.55-11.2-3.84a5.26,5.26,0,0,1-1.83-2.37,18.67,18.67,0,0,1-1-7.48L86.13,80,80,79.29a18.67,18.67,0,0,1-1,7.48,5.26,5.26,0,0,1-1.83,2.37C73.77,91.43,68.48,90,66,93a7.27,7.27,0,0,0-1.18,3,35.14,35.14,0,0,0-.64,6.54A81.22,81.22,0,0,0,66,120.46a37.25,37.25,0,0,1,.76,9l.83.39h0l.92.41A44.28,44.28,0,0,0,86.06,134h.16a44.2,44.2,0,0,0,17.61-3.63c.3-.11.59-.24.88-.38l.07,0q.38-.16.75-.36a38.34,38.34,0,0,1,.75-9.09A80,80,0,0,0,108.1,102.55Z"/><path class="cls-3" d="M108.53,137l.15.85h0a6.62,6.62,0,0,1-2.37-.41c-.06-.31-.11-.63-.16-1v-.06a58.24,58.24,0,0,1-.61-6.91q-.37.19-.75.36l-.07,0c-.29.14-.58.27-.88.38A44.2,44.2,0,0,1,86.22,134h-.16a44.28,44.28,0,0,1-17.56-3.66l-.92-.41h0l-.83-.39a61.72,61.72,0,0,1-.61,7h0c0,.34-.09.69-.15,1a6.64,6.64,0,0,1-2.38.42c0-.28.09-.56.14-.85.09-.53.17-1.07.26-1.63.32-2.21.55-4.59.68-7a57.26,57.26,0,0,0-.52-12.51,64.8,64.8,0,0,1-.55-13.35c.13-2.55.35-4.82.55-6.56.25-2.11.47-3.42.47-3.42a13.44,13.44,0,0,1,7.58-3.09c2.49-.19,5.64-2.25,5.64-2.25L79,86.77l.46-.18L83,87.8,86.06,90l.07,0,.09-.06,3-2.16,3.53-1.21.45.18,1.16.46s3.16,2.06,5.65,2.25a13.5,13.5,0,0,1,7.59,3.09s.22,1.31.47,3.42c.19,1.74.41,4,.54,6.56a64.11,64.11,0,0,1-.55,13.35,58.12,58.12,0,0,0-.52,12.6c.13,2.41.38,4.78.7,7Q108.4,136.27,108.53,137Z"/><path class="cls-2" d="M85.89,94.86c0,.73-.37,1.32-.81,1.32s-.81-.59-.81-1.32.36-1.33.81-1.33S85.89,94.12,85.89,94.86Z"/><path class="cls-2" d="M88.21,102c0,.73-.36,1.33-.81,1.33s-.8-.6-.8-1.33.36-1.32.8-1.32S88.21,101.26,88.21,102Z"/><path class="cls-4" d="M86.06,90.07s1.55,7.16,6.12,11.62,7.53,6.46,7.5,11.54c0,3.27-.72,11.75.51,19.9"/><path class="cls-2" d="M137.36,159.17a200.11,200.11,0,0,0-102.28,0q-2.65-11.56-5.29-23.13a220.8,220.8,0,0,1,112.85,0Z"/><text class="cls-5" transform="translate(48.15 149.6) rotate(-9.79)">C</text><text class="cls-5" transform="translate(56.53 148.17) rotate(-7.64)">H</text><text class="cls-5" transform="matrix(0.99, -0.1, 0.1, 0.99, 63.47, 147.25)">E</text><text class="cls-5" transform="translate(68.86 146.69) rotate(-4.4)">F</text><text class="cls-5" transform="translate(74.31 146.29) rotate(-3.25)"> </text><text class="cls-5" transform="translate(77.12 146.11) rotate(-1.96)">B</text><text class="cls-5" transform="translate(83.54 145.87) rotate(0.11)">O</text><text class="cls-5" transform="translate(92.05 145.9) rotate(2.21)">U</text><text class="cls-5" transform="translate(98.69 146.14) rotate(4.32)">C</text><text class="cls-5" transform="translate(107.17 146.79) rotate(6.47)">H</text><text class="cls-5" transform="matrix(0.99, 0.15, -0.15, 0.99, 114.12, 147.58)">R</text><text class="cls-5" transform="translate(120.78 148.56) rotate(10.24)">A</text><text class="cls-5" transform="translate(127.38 149.77) rotate(11.56)"> </text><path class="cls-3" d="M69.79,81.09a5.2,5.2,0,0,0-2.33-1.41,3.74,3.74,0,0,0-2.8,1.41,14.52,14.52,0,0,0-2.38,4.41C62,86.68,69.56,82.11,69.79,81.09Z"/><path class="cls-2" d="M65.68,68.62c-1.32-3.61-4.16-5.07-6.15-4.34s-3.24,3.66-1.92,7.28S63,75.83,63,75.83,67.3,89.2,68.16,92.1s2.3,2.21,2.3,2.21,1.55-.39.34-3.17-6.49-15.79-6.49-15.79S67,72.24,65.68,68.62Z"/><path class="cls-3" d="M75.66,88.74s.82-1.28.58-2a1.52,1.52,0,0,0-1-.93,2.8,2.8,0,0,0,0-1.67,1.63,1.63,0,0,0-1.12-.94A2.45,2.45,0,0,0,74,81.24c-.54-.7-2.41-.55-3.54-.31a25.36,25.36,0,0,0-6.73,2.84,9.09,9.09,0,0,0-2.37,4C61,88.59,59,95,59,95.78c0,0-1.86,20.12-2.43,25.81s2.86,15,6.54,15.42,5.23-2.13,6.58-6-.36-9.38-1.66-15.09-1.19-17.68-1.19-17.68c.16-.93,6-3.27,7.36-4.25a8.1,8.1,0,0,0,2.45-4.49C76.59,88.74,75.66,88.74,75.66,88.74Z"/><path class="cls-3" d="M67.13,136.9a4.93,4.93,0,0,1-1.15.57,6.64,6.64,0,0,1-2.38.42h0c-3.57,0-5.66-3.41-6.79-7.11a27.17,27.17,0,0,1-1.18-8c.1-3.64,2-21.56,2-21.56a4.1,4.1,0,0,0,.78.41,13.56,13.56,0,0,0,5.18.88,5.23,5.23,0,0,0,.56,0c.81,0,1.7-.06,2.69-.16l.94-.12s1.49,14.78,2.9,21.16C71.83,128.46,70.83,134.57,67.13,136.9Z"/><path class="cls-2" d="M67.37,65.53s-1.17,3.84,3.11,8,2.28,7.93,2.28,7.93a6.14,6.14,0,0,0,1.51-7.11C72.4,70,71.69,68.59,72,65.84s-2.79-4.36-2.79-4.36Z"/><path class="cls-6" d="M86.21,35C70.14,35,69.36,52.82,69.36,52.82S70,68.53,71.49,71.67,82.07,83.1,86.21,83.1s13.28-8.29,14.73-11.43,2.13-18.85,2.13-18.85S102.29,35,86.21,35Z"/><path class="cls-2" d="M87.94,40.82s4.62,1.75,6.2,7.93a18,18,0,0,0,6.19,7.15s-.64,5.56.5,8.2c0,0,0-3.41,1.36-3.76s1.31-.61,1.79.76c0,0,1.84-13.12-6.38-21.75-9.11-9-14-4.64-14-4.64Z"/><path class="cls-2" d="M84.63,40.82s-4.62,1.75-6.2,7.93a18,18,0,0,1-6.19,7.15s.64,5.56-.5,8.2c0,0,.05-3.41-1.36-3.76s-1.31-.61-1.79.76c0,0-1.84-13.12,6.37-21.75,9.12-9,14-4.64,14-4.64Z"/><path class="cls-6" d="M71.51,65.59s.39-4-1-5.09-6.69,2.33.53,8A6.94,6.94,0,0,0,71.51,65.59Z"/><path class="cls-6" d="M101,65.59s-.38-4,1-5.09,6.68,2.33-.53,8A7,7,0,0,1,101,65.59Z"/><path class="cls-7" d="M69.89,46.31c-.48-.14-11.92-3.58-13.14-8.77-1-4.33,1.79-6,3-6.49-.41-1.62-1.37-7,3.17-10.19a8.64,8.64,0,0,1,5-1.69,8.3,8.3,0,0,1,4.4,1.3c.86-2.36,4.37-10.16,13.2-10.16s12,5.78,12.79,7.48a12.81,12.81,0,0,1,3.44-.48,11,11,0,0,1,6.89,2.32c4.77,3.69,3.9,10.46,2.9,13.15a6.46,6.46,0,0,1,3.65,5.11c.4,4-6,7.13-10.43,7.94L70,46.33Z"/><path class="cls-2" d="M85.46,10.81c10.09,0,12.5,7.61,12.5,7.61a11.16,11.16,0,0,1,3.73-.61A10.62,10.62,0,0,1,108.27,20c4.83,3.73,3.58,10.82,2.56,13a6.1,6.1,0,0,1,3.8,4.9c.37,3.65-5.7,6.61-10,7.4L70,45.83S58.41,42.4,57.24,37.42s3.07-6.06,3.07-6.06S58,24.85,63.16,21.27a8.09,8.09,0,0,1,4.7-1.6,7.8,7.8,0,0,1,4.66,1.6s2.85-10.46,12.94-10.46m0-1c-8.53,0-12.27,7-13.46,9.93a8.78,8.78,0,0,0-4.14-1.07,9.08,9.08,0,0,0-5.27,1.78c-4,2.82-4.13,7.54-3.49,10.3-1.74.86-3.76,3-2.83,6.9C57.53,43,68.5,46.42,69.75,46.79l.15,0h.15l34.58-.49h.16c4.77-.87,11.28-4.08,10.84-8.48a6.88,6.88,0,0,0-3.54-5.3c1-3,1.55-9.63-3.21-13.31a11.65,11.65,0,0,0-7.19-2.42,13.28,13.28,0,0,0-3.16.39C97.46,15.05,94,9.81,85.46,9.81Z"/><path class="cls-2" d="M71.53,35.14A8.81,8.81,0,0,0,76,41.39l-.85,1S71.13,39.6,71.53,35.14Z"/><path class="cls-2" d="M80.05,29.88s-.6,6.79,2.77,10.43l-1.56.83A17.85,17.85,0,0,1,80.05,29.88Z"/><path class="cls-2" d="M94.12,31.34s-2.15,5.12-1.5,9.32-1.6,1-1.6,1A17.79,17.79,0,0,1,94.12,31.34Z"/><path class="cls-2" d="M100.44,42.42s0-3,1.58-4.72c0,0-1.89,1-2.46,4.38S100.44,42.42,100.44,42.42Z"/><path class="cls-2" d="M72.52,21.27a5.85,5.85,0,0,1,1.93,2.56,5.12,5.12,0,0,0-1.72-3.2Z"/><path class="cls-2" d="M60.31,31.36a6.5,6.5,0,0,0,1.2,2.23,4.71,4.71,0,0,1-1.74-2Z"/><path class="cls-2" d="M98,18.42a10.56,10.56,0,0,1,.55,5.06,9.77,9.77,0,0,0,.35-5.33Z"/><path class="cls-2" d="M110.83,33a3.17,3.17,0,0,0-3.11,1.26s.5-2.22,3.52-2.41Z"/><path class="cls-7" d="M68.91,45c3.22-2.65,9.89-4.28,17.53-4.28S100.76,42.3,104,45v9.39c-1.72-1.12-6.34-3.1-17.53-3.1s-15.81,2-17.53,3.1Z"/><path class="cls-2" d="M86.44,41.17c7.38,0,13.84,1.53,17,4v8.27c-2.26-1.18-7.1-2.72-17-2.72s-14.77,1.54-17,2.72V45.19c3.19-2.49,9.65-4,17-4m0-1c-7.27,0-14.54,1.51-18,4.55V55.39s2.84-3.65,18-3.65,18,3.65,18,3.65V44.72c-3.49-3-10.76-4.55-18-4.55Z"/><path class="cls-2" d="M75.71,62.38a3.59,3.59,0,0,1,.82-1.29,3.17,3.17,0,0,1,1.08-.67,3.12,3.12,0,0,1,1.25-.09A3.85,3.85,0,0,1,81,61.54a5.2,5.2,0,0,1,1.19,2.08c-.62-.45-1.18-.88-1.75-1.24a4.65,4.65,0,0,0-1.69-.7c-1.1-.23-2.17.47-3.22,1.63l-1.9-1.7Z"/><path class="cls-2" d="M96,62.38a3.59,3.59,0,0,0-.82-1.29,2.61,2.61,0,0,0-2.33-.76,3.83,3.83,0,0,0-2.08,1.21,5,5,0,0,0-1.19,2.08c.62-.45,1.18-.88,1.75-1.24a4.65,4.65,0,0,1,1.69-.7c1.1-.23,2.17.47,3.21,1.63l1.91-1.7Z"/><path class="cls-2" d="M84,68.7l1,.52a2.19,2.19,0,0,0,.9.29,1.69,1.69,0,0,0,.86-.23c.31-.17.63-.37,1-.58a2.29,2.29,0,0,1-.62,1.06,1.66,1.66,0,0,1-1.26.52,2,2,0,0,1-1.21-.56A2.56,2.56,0,0,1,84,68.7Z"/><path class="cls-2" d="M86,75.39c-2,0-3.88-1.19-5.64-3.54l-.59-.78.84.5a11.54,11.54,0,0,0,11.19-.27l.74-.45-.48.72c-.1.15-2.49,3.71-5.91,3.82ZM81.2,72.28c1.58,1.86,3.24,2.76,5,2.72,2.3-.07,4.15-1.87,5-2.92A11.86,11.86,0,0,1,81.2,72.28Z"/><path class="cls-2" d="M74.44,58.3s2.36-3,7.58,1.05a4.53,4.53,0,0,0-1.74-2.42A4.33,4.33,0,0,0,74.44,58.3Z"/><path class="cls-2" d="M97.29,58.3s-2.36-3-7.58,1.05a4.57,4.57,0,0,1,1.75-2.42A4.32,4.32,0,0,1,97.29,58.3Z"/><path class="cls-3" d="M102.48,81.09a5.19,5.19,0,0,1,2.34-1.41,3.74,3.74,0,0,1,2.79,1.41A14.31,14.31,0,0,1,110,85.5C110.26,86.68,102.71,82.11,102.48,81.09Z"/><path class="cls-2" d="M115.34,65.18l-.53-.19-2.43,6.68a.38.38,0,1,1-.72-.26l2.43-6.68-.87-.32-2.43,6.68a.4.4,0,0,1-.5.23.39.39,0,0,1-.23-.5l2.43-6.67-.87-.32-2.43,6.68a.38.38,0,0,1-.49.23.39.39,0,0,1-.23-.5l2.43-6.67-.53-.2s-2.59,5.56-3.21,7.44,1.06,3.87,1.06,3.87S101.9,90.18,101.1,92a1.61,1.61,0,1,0,3,1.08c.53-1.87,5.65-17.8,5.65-17.8s2.57-.45,3.3-2.29S115.34,65.18,115.34,65.18Z"/><path class="cls-3" d="M115.72,121.59c-.57-5.69-2.43-25.81-2.43-25.81,0-.81-2-7.19-2.33-8a9.09,9.09,0,0,0-2.37-4,25.36,25.36,0,0,0-6.73-2.84c-1.13-.24-3-.39-3.54.31a2.45,2.45,0,0,0-.12,1.94,1.63,1.63,0,0,0-1.12.94,2.8,2.8,0,0,0,0,1.67,1.52,1.52,0,0,0-1,.93c-.24.74.58,2,.58,2s-.93,0-1,.74A8.1,8.1,0,0,0,98.09,94c1.35,1,7.21,3.32,7.36,4.25,0,0,.11,12-1.19,17.68s-3,11.2-1.66,15.09,2.9,6.38,6.58,6S116.29,127.27,115.72,121.59Z"/><path class="cls-3" d="M115.42,130.94c-1.14,3.63-3.21,6.94-6.74,6.95h0a6.62,6.62,0,0,1-2.37-.41,5.7,5.7,0,0,1-1.11-.54c-3.74-2.31-4.75-8.45-3.62-13.51,1.41-6.38,2.89-21.16,2.89-21.16l1,.12c1,.1,1.88.16,2.69.16a5.23,5.23,0,0,0,.56,0,13.56,13.56,0,0,0,5.18-.88,4.58,4.58,0,0,0,.78-.41s1.93,17.92,2,21.56A27.21,27.21,0,0,1,115.42,130.94Z"/><path class="cls-3" d="M87.59,84.86s.34,3.23-1.19,5.18c0,0,6.08-.42,8-2.81L94,83.1A10.67,10.67,0,0,1,87.59,84.86Z"/><path class="cls-3" d="M84.68,84.86s-.32,3.33,1.21,5.28c0,0-6.09-.52-8-2.91l.45-4.13A10.62,10.62,0,0,0,84.68,84.86Z"/></svg>